<mxfile host="app.diagrams.net" agent="Mozilla/5.0 (Windows NT 10.0; Win64; x64) AppleWebKit/537.36 (KHTML, like Gecko) Chrome/129.0.0.0 Safari/537.36 Edg/129.0.0.0" version="24.7.17">
  <diagram name="第 1 页" id="TXz_tW3Lk2cjGCyRULxr">
    <mxGraphModel dx="1213" dy="627" grid="1" gridSize="10" guides="1" tooltips="1" connect="1" arrows="1" fold="1" page="1" pageScale="1" pageWidth="827" pageHeight="1169" math="0" shadow="0">
      <root>
        <mxCell id="0" />
        <mxCell id="1" parent="0" />
        <mxCell id="ExWaQGSTnUzk4WiOq3_O-2" value="" style="shape=table;startSize=0;container=1;collapsible=0;childLayout=tableLayout;fontSize=16;" vertex="1" parent="1">
          <mxGeometry x="130" y="190" width="120" height="47" as="geometry" />
        </mxCell>
        <mxCell id="ExWaQGSTnUzk4WiOq3_O-7" value="" style="shape=tableRow;horizontal=0;startSize=0;swimlaneHead=0;swimlaneBody=0;strokeColor=inherit;top=0;left=0;bottom=0;right=0;collapsible=0;dropTarget=0;fillColor=none;points=[[0,0.5],[1,0.5]];portConstraint=eastwest;fontSize=16;" vertex="1" parent="ExWaQGSTnUzk4WiOq3_O-2">
          <mxGeometry width="120" height="24" as="geometry" />
        </mxCell>
        <mxCell id="ExWaQGSTnUzk4WiOq3_O-8" value="1" style="shape=partialRectangle;html=1;whiteSpace=wrap;connectable=0;strokeColor=inherit;overflow=hidden;fillColor=none;top=0;left=0;bottom=0;right=0;pointerEvents=1;fontSize=16;" vertex="1" parent="ExWaQGSTnUzk4WiOq3_O-7">
          <mxGeometry width="40" height="24" as="geometry">
            <mxRectangle width="40" height="24" as="alternateBounds" />
          </mxGeometry>
        </mxCell>
        <mxCell id="ExWaQGSTnUzk4WiOq3_O-9" value="2" style="shape=partialRectangle;html=1;whiteSpace=wrap;connectable=0;strokeColor=inherit;overflow=hidden;fillColor=none;top=0;left=0;bottom=0;right=0;pointerEvents=1;fontSize=16;" vertex="1" parent="ExWaQGSTnUzk4WiOq3_O-7">
          <mxGeometry x="40" width="40" height="24" as="geometry">
            <mxRectangle width="40" height="24" as="alternateBounds" />
          </mxGeometry>
        </mxCell>
        <mxCell id="ExWaQGSTnUzk4WiOq3_O-10" value="..." style="shape=partialRectangle;html=1;whiteSpace=wrap;connectable=0;strokeColor=inherit;overflow=hidden;fillColor=none;top=0;left=0;bottom=0;right=0;pointerEvents=1;fontSize=16;" vertex="1" parent="ExWaQGSTnUzk4WiOq3_O-7">
          <mxGeometry x="80" width="40" height="24" as="geometry">
            <mxRectangle width="40" height="24" as="alternateBounds" />
          </mxGeometry>
        </mxCell>
        <mxCell id="ExWaQGSTnUzk4WiOq3_O-3" value="" style="shape=tableRow;horizontal=0;startSize=0;swimlaneHead=0;swimlaneBody=0;strokeColor=inherit;top=0;left=0;bottom=0;right=0;collapsible=0;dropTarget=0;fillColor=none;points=[[0,0.5],[1,0.5]];portConstraint=eastwest;fontSize=16;" vertex="1" parent="ExWaQGSTnUzk4WiOq3_O-2">
          <mxGeometry y="24" width="120" height="23" as="geometry" />
        </mxCell>
        <mxCell id="ExWaQGSTnUzk4WiOq3_O-4" value="v2" style="shape=partialRectangle;html=1;whiteSpace=wrap;connectable=0;strokeColor=inherit;overflow=hidden;fillColor=none;top=0;left=0;bottom=0;right=0;pointerEvents=1;fontSize=16;" vertex="1" parent="ExWaQGSTnUzk4WiOq3_O-3">
          <mxGeometry width="40" height="23" as="geometry">
            <mxRectangle width="40" height="23" as="alternateBounds" />
          </mxGeometry>
        </mxCell>
        <mxCell id="ExWaQGSTnUzk4WiOq3_O-5" value="v2" style="shape=partialRectangle;html=1;whiteSpace=wrap;connectable=0;strokeColor=inherit;overflow=hidden;fillColor=none;top=0;left=0;bottom=0;right=0;pointerEvents=1;fontSize=16;" vertex="1" parent="ExWaQGSTnUzk4WiOq3_O-3">
          <mxGeometry x="40" width="40" height="23" as="geometry">
            <mxRectangle width="40" height="23" as="alternateBounds" />
          </mxGeometry>
        </mxCell>
        <mxCell id="ExWaQGSTnUzk4WiOq3_O-6" value="..." style="shape=partialRectangle;html=1;whiteSpace=wrap;connectable=0;strokeColor=inherit;overflow=hidden;fillColor=none;top=0;left=0;bottom=0;right=0;pointerEvents=1;fontSize=16;" vertex="1" parent="ExWaQGSTnUzk4WiOq3_O-3">
          <mxGeometry x="80" width="40" height="23" as="geometry">
            <mxRectangle width="40" height="23" as="alternateBounds" />
          </mxGeometry>
        </mxCell>
        <mxCell id="ExWaQGSTnUzk4WiOq3_O-15" value="" style="shape=table;startSize=0;container=1;collapsible=0;childLayout=tableLayout;fontSize=16;" vertex="1" parent="1">
          <mxGeometry x="250" y="190" width="160" height="47" as="geometry" />
        </mxCell>
        <mxCell id="ExWaQGSTnUzk4WiOq3_O-16" value="" style="shape=tableRow;horizontal=0;startSize=0;swimlaneHead=0;swimlaneBody=0;strokeColor=inherit;top=0;left=0;bottom=0;right=0;collapsible=0;dropTarget=0;fillColor=none;points=[[0,0.5],[1,0.5]];portConstraint=eastwest;fontSize=16;" vertex="1" parent="ExWaQGSTnUzk4WiOq3_O-15">
          <mxGeometry width="160" height="24" as="geometry" />
        </mxCell>
        <mxCell id="ExWaQGSTnUzk4WiOq3_O-119" value="i-1" style="shape=partialRectangle;html=1;whiteSpace=wrap;connectable=0;strokeColor=inherit;overflow=hidden;fillColor=none;top=0;left=0;bottom=0;right=0;pointerEvents=1;fontSize=16;" vertex="1" parent="ExWaQGSTnUzk4WiOq3_O-16">
          <mxGeometry width="40" height="24" as="geometry">
            <mxRectangle width="40" height="24" as="alternateBounds" />
          </mxGeometry>
        </mxCell>
        <mxCell id="ExWaQGSTnUzk4WiOq3_O-17" value="i" style="shape=partialRectangle;html=1;whiteSpace=wrap;connectable=0;strokeColor=inherit;overflow=hidden;fillColor=none;top=0;left=0;bottom=0;right=0;pointerEvents=1;fontSize=16;" vertex="1" parent="ExWaQGSTnUzk4WiOq3_O-16">
          <mxGeometry x="40" width="40" height="24" as="geometry">
            <mxRectangle width="40" height="24" as="alternateBounds" />
          </mxGeometry>
        </mxCell>
        <mxCell id="ExWaQGSTnUzk4WiOq3_O-18" value="..." style="shape=partialRectangle;html=1;whiteSpace=wrap;connectable=0;strokeColor=inherit;overflow=hidden;fillColor=none;top=0;left=0;bottom=0;right=0;pointerEvents=1;fontSize=16;" vertex="1" parent="ExWaQGSTnUzk4WiOq3_O-16">
          <mxGeometry x="80" width="40" height="24" as="geometry">
            <mxRectangle width="40" height="24" as="alternateBounds" />
          </mxGeometry>
        </mxCell>
        <mxCell id="ExWaQGSTnUzk4WiOq3_O-19" value="m" style="shape=partialRectangle;html=1;whiteSpace=wrap;connectable=0;strokeColor=inherit;overflow=hidden;fillColor=none;top=0;left=0;bottom=0;right=0;pointerEvents=1;fontSize=16;" vertex="1" parent="ExWaQGSTnUzk4WiOq3_O-16">
          <mxGeometry x="120" width="40" height="24" as="geometry">
            <mxRectangle width="40" height="24" as="alternateBounds" />
          </mxGeometry>
        </mxCell>
        <mxCell id="ExWaQGSTnUzk4WiOq3_O-20" value="" style="shape=tableRow;horizontal=0;startSize=0;swimlaneHead=0;swimlaneBody=0;strokeColor=inherit;top=0;left=0;bottom=0;right=0;collapsible=0;dropTarget=0;fillColor=none;points=[[0,0.5],[1,0.5]];portConstraint=eastwest;fontSize=16;" vertex="1" parent="ExWaQGSTnUzk4WiOq3_O-15">
          <mxGeometry y="24" width="160" height="23" as="geometry" />
        </mxCell>
        <mxCell id="ExWaQGSTnUzk4WiOq3_O-120" value="vi-1" style="shape=partialRectangle;html=1;whiteSpace=wrap;connectable=0;strokeColor=inherit;overflow=hidden;fillColor=none;top=0;left=0;bottom=0;right=0;pointerEvents=1;fontSize=16;" vertex="1" parent="ExWaQGSTnUzk4WiOq3_O-20">
          <mxGeometry width="40" height="23" as="geometry">
            <mxRectangle width="40" height="23" as="alternateBounds" />
          </mxGeometry>
        </mxCell>
        <mxCell id="ExWaQGSTnUzk4WiOq3_O-21" value="vi" style="shape=partialRectangle;html=1;whiteSpace=wrap;connectable=0;strokeColor=inherit;overflow=hidden;fillColor=none;top=0;left=0;bottom=0;right=0;pointerEvents=1;fontSize=16;" vertex="1" parent="ExWaQGSTnUzk4WiOq3_O-20">
          <mxGeometry x="40" width="40" height="23" as="geometry">
            <mxRectangle width="40" height="23" as="alternateBounds" />
          </mxGeometry>
        </mxCell>
        <mxCell id="ExWaQGSTnUzk4WiOq3_O-22" value="..." style="shape=partialRectangle;html=1;whiteSpace=wrap;connectable=0;strokeColor=inherit;overflow=hidden;fillColor=none;top=0;left=0;bottom=0;right=0;pointerEvents=1;fontSize=16;" vertex="1" parent="ExWaQGSTnUzk4WiOq3_O-20">
          <mxGeometry x="80" width="40" height="23" as="geometry">
            <mxRectangle width="40" height="23" as="alternateBounds" />
          </mxGeometry>
        </mxCell>
        <mxCell id="ExWaQGSTnUzk4WiOq3_O-23" value="vm" style="shape=partialRectangle;html=1;whiteSpace=wrap;connectable=0;strokeColor=inherit;overflow=hidden;fillColor=none;top=0;left=0;bottom=0;right=0;pointerEvents=1;fontSize=16;" vertex="1" parent="ExWaQGSTnUzk4WiOq3_O-20">
          <mxGeometry x="120" width="40" height="23" as="geometry">
            <mxRectangle width="40" height="23" as="alternateBounds" />
          </mxGeometry>
        </mxCell>
        <mxCell id="ExWaQGSTnUzk4WiOq3_O-64" value="" style="shape=table;startSize=0;container=1;collapsible=0;childLayout=tableLayout;fontSize=16;" vertex="1" parent="1">
          <mxGeometry x="130" y="300" width="120" height="47" as="geometry" />
        </mxCell>
        <mxCell id="ExWaQGSTnUzk4WiOq3_O-65" value="" style="shape=tableRow;horizontal=0;startSize=0;swimlaneHead=0;swimlaneBody=0;strokeColor=inherit;top=0;left=0;bottom=0;right=0;collapsible=0;dropTarget=0;fillColor=none;points=[[0,0.5],[1,0.5]];portConstraint=eastwest;fontSize=16;" vertex="1" parent="ExWaQGSTnUzk4WiOq3_O-64">
          <mxGeometry width="120" height="24" as="geometry" />
        </mxCell>
        <mxCell id="ExWaQGSTnUzk4WiOq3_O-66" value="1" style="shape=partialRectangle;html=1;whiteSpace=wrap;connectable=0;strokeColor=inherit;overflow=hidden;fillColor=none;top=0;left=0;bottom=0;right=0;pointerEvents=1;fontSize=16;" vertex="1" parent="ExWaQGSTnUzk4WiOq3_O-65">
          <mxGeometry width="40" height="24" as="geometry">
            <mxRectangle width="40" height="24" as="alternateBounds" />
          </mxGeometry>
        </mxCell>
        <mxCell id="ExWaQGSTnUzk4WiOq3_O-67" value="2" style="shape=partialRectangle;html=1;whiteSpace=wrap;connectable=0;strokeColor=inherit;overflow=hidden;fillColor=none;top=0;left=0;bottom=0;right=0;pointerEvents=1;fontSize=16;" vertex="1" parent="ExWaQGSTnUzk4WiOq3_O-65">
          <mxGeometry x="40" width="40" height="24" as="geometry">
            <mxRectangle width="40" height="24" as="alternateBounds" />
          </mxGeometry>
        </mxCell>
        <mxCell id="ExWaQGSTnUzk4WiOq3_O-68" value="..." style="shape=partialRectangle;html=1;whiteSpace=wrap;connectable=0;strokeColor=inherit;overflow=hidden;fillColor=none;top=0;left=0;bottom=0;right=0;pointerEvents=1;fontSize=16;" vertex="1" parent="ExWaQGSTnUzk4WiOq3_O-65">
          <mxGeometry x="80" width="40" height="24" as="geometry">
            <mxRectangle width="40" height="24" as="alternateBounds" />
          </mxGeometry>
        </mxCell>
        <mxCell id="ExWaQGSTnUzk4WiOq3_O-69" value="" style="shape=tableRow;horizontal=0;startSize=0;swimlaneHead=0;swimlaneBody=0;strokeColor=inherit;top=0;left=0;bottom=0;right=0;collapsible=0;dropTarget=0;fillColor=none;points=[[0,0.5],[1,0.5]];portConstraint=eastwest;fontSize=16;" vertex="1" parent="ExWaQGSTnUzk4WiOq3_O-64">
          <mxGeometry y="24" width="120" height="23" as="geometry" />
        </mxCell>
        <mxCell id="ExWaQGSTnUzk4WiOq3_O-70" value="v2" style="shape=partialRectangle;html=1;whiteSpace=wrap;connectable=0;strokeColor=inherit;overflow=hidden;fillColor=none;top=0;left=0;bottom=0;right=0;pointerEvents=1;fontSize=16;" vertex="1" parent="ExWaQGSTnUzk4WiOq3_O-69">
          <mxGeometry width="40" height="23" as="geometry">
            <mxRectangle width="40" height="23" as="alternateBounds" />
          </mxGeometry>
        </mxCell>
        <mxCell id="ExWaQGSTnUzk4WiOq3_O-71" value="v2" style="shape=partialRectangle;html=1;whiteSpace=wrap;connectable=0;strokeColor=inherit;overflow=hidden;fillColor=none;top=0;left=0;bottom=0;right=0;pointerEvents=1;fontSize=16;" vertex="1" parent="ExWaQGSTnUzk4WiOq3_O-69">
          <mxGeometry x="40" width="40" height="23" as="geometry">
            <mxRectangle width="40" height="23" as="alternateBounds" />
          </mxGeometry>
        </mxCell>
        <mxCell id="ExWaQGSTnUzk4WiOq3_O-72" value="..." style="shape=partialRectangle;html=1;whiteSpace=wrap;connectable=0;strokeColor=inherit;overflow=hidden;fillColor=none;top=0;left=0;bottom=0;right=0;pointerEvents=1;fontSize=16;" vertex="1" parent="ExWaQGSTnUzk4WiOq3_O-69">
          <mxGeometry x="80" width="40" height="23" as="geometry">
            <mxRectangle width="40" height="23" as="alternateBounds" />
          </mxGeometry>
        </mxCell>
        <mxCell id="ExWaQGSTnUzk4WiOq3_O-73" value="" style="shape=table;startSize=0;container=1;collapsible=0;childLayout=tableLayout;fontSize=16;" vertex="1" parent="1">
          <mxGeometry x="250" y="300" width="200" height="47" as="geometry" />
        </mxCell>
        <mxCell id="ExWaQGSTnUzk4WiOq3_O-74" value="" style="shape=tableRow;horizontal=0;startSize=0;swimlaneHead=0;swimlaneBody=0;strokeColor=inherit;top=0;left=0;bottom=0;right=0;collapsible=0;dropTarget=0;fillColor=none;points=[[0,0.5],[1,0.5]];portConstraint=eastwest;fontSize=16;" vertex="1" parent="ExWaQGSTnUzk4WiOq3_O-73">
          <mxGeometry width="200" height="24" as="geometry" />
        </mxCell>
        <mxCell id="ExWaQGSTnUzk4WiOq3_O-115" value="i-1" style="shape=partialRectangle;html=1;whiteSpace=wrap;connectable=0;strokeColor=inherit;overflow=hidden;fillColor=none;top=0;left=0;bottom=0;right=0;pointerEvents=1;fontSize=16;" vertex="1" parent="ExWaQGSTnUzk4WiOq3_O-74">
          <mxGeometry width="40" height="24" as="geometry">
            <mxRectangle width="40" height="24" as="alternateBounds" />
          </mxGeometry>
        </mxCell>
        <mxCell id="ExWaQGSTnUzk4WiOq3_O-75" value="a" style="shape=partialRectangle;html=1;whiteSpace=wrap;connectable=0;strokeColor=inherit;overflow=hidden;fillColor=none;top=0;left=0;bottom=0;right=0;pointerEvents=1;fontSize=16;" vertex="1" parent="ExWaQGSTnUzk4WiOq3_O-74">
          <mxGeometry x="40" width="40" height="24" as="geometry">
            <mxRectangle width="40" height="24" as="alternateBounds" />
          </mxGeometry>
        </mxCell>
        <mxCell id="ExWaQGSTnUzk4WiOq3_O-76" value="..." style="shape=partialRectangle;html=1;whiteSpace=wrap;connectable=0;strokeColor=inherit;overflow=hidden;fillColor=none;top=0;left=0;bottom=0;right=0;pointerEvents=1;fontSize=16;" vertex="1" parent="ExWaQGSTnUzk4WiOq3_O-74">
          <mxGeometry x="80" width="40" height="24" as="geometry">
            <mxRectangle width="40" height="24" as="alternateBounds" />
          </mxGeometry>
        </mxCell>
        <mxCell id="ExWaQGSTnUzk4WiOq3_O-122" value="..." style="shape=partialRectangle;html=1;whiteSpace=wrap;connectable=0;strokeColor=inherit;overflow=hidden;fillColor=none;top=0;left=0;bottom=0;right=0;pointerEvents=1;fontSize=16;" vertex="1" parent="ExWaQGSTnUzk4WiOq3_O-74">
          <mxGeometry x="120" width="40" height="24" as="geometry">
            <mxRectangle width="40" height="24" as="alternateBounds" />
          </mxGeometry>
        </mxCell>
        <mxCell id="ExWaQGSTnUzk4WiOq3_O-77" value="m" style="shape=partialRectangle;html=1;whiteSpace=wrap;connectable=0;strokeColor=inherit;overflow=hidden;fillColor=none;top=0;left=0;bottom=0;right=0;pointerEvents=1;fontSize=16;" vertex="1" parent="ExWaQGSTnUzk4WiOq3_O-74">
          <mxGeometry x="160" width="40" height="24" as="geometry">
            <mxRectangle width="40" height="24" as="alternateBounds" />
          </mxGeometry>
        </mxCell>
        <mxCell id="ExWaQGSTnUzk4WiOq3_O-78" value="" style="shape=tableRow;horizontal=0;startSize=0;swimlaneHead=0;swimlaneBody=0;strokeColor=inherit;top=0;left=0;bottom=0;right=0;collapsible=0;dropTarget=0;fillColor=none;points=[[0,0.5],[1,0.5]];portConstraint=eastwest;fontSize=16;" vertex="1" parent="ExWaQGSTnUzk4WiOq3_O-73">
          <mxGeometry y="24" width="200" height="23" as="geometry" />
        </mxCell>
        <mxCell id="ExWaQGSTnUzk4WiOq3_O-116" value="vi-1" style="shape=partialRectangle;html=1;whiteSpace=wrap;connectable=0;strokeColor=inherit;overflow=hidden;fillColor=none;top=0;left=0;bottom=0;right=0;pointerEvents=1;fontSize=16;" vertex="1" parent="ExWaQGSTnUzk4WiOq3_O-78">
          <mxGeometry width="40" height="23" as="geometry">
            <mxRectangle width="40" height="23" as="alternateBounds" />
          </mxGeometry>
        </mxCell>
        <mxCell id="ExWaQGSTnUzk4WiOq3_O-79" value="va" style="shape=partialRectangle;html=1;whiteSpace=wrap;connectable=0;strokeColor=inherit;overflow=hidden;fillColor=none;top=0;left=0;bottom=0;right=0;pointerEvents=1;fontSize=16;" vertex="1" parent="ExWaQGSTnUzk4WiOq3_O-78">
          <mxGeometry x="40" width="40" height="23" as="geometry">
            <mxRectangle width="40" height="23" as="alternateBounds" />
          </mxGeometry>
        </mxCell>
        <mxCell id="ExWaQGSTnUzk4WiOq3_O-80" value="..." style="shape=partialRectangle;html=1;whiteSpace=wrap;connectable=0;strokeColor=inherit;overflow=hidden;fillColor=none;top=0;left=0;bottom=0;right=0;pointerEvents=1;fontSize=16;" vertex="1" parent="ExWaQGSTnUzk4WiOq3_O-78">
          <mxGeometry x="80" width="40" height="23" as="geometry">
            <mxRectangle width="40" height="23" as="alternateBounds" />
          </mxGeometry>
        </mxCell>
        <mxCell id="ExWaQGSTnUzk4WiOq3_O-123" value="..." style="shape=partialRectangle;html=1;whiteSpace=wrap;connectable=0;strokeColor=inherit;overflow=hidden;fillColor=none;top=0;left=0;bottom=0;right=0;pointerEvents=1;fontSize=16;" vertex="1" parent="ExWaQGSTnUzk4WiOq3_O-78">
          <mxGeometry x="120" width="40" height="23" as="geometry">
            <mxRectangle width="40" height="23" as="alternateBounds" />
          </mxGeometry>
        </mxCell>
        <mxCell id="ExWaQGSTnUzk4WiOq3_O-81" value="vm" style="shape=partialRectangle;html=1;whiteSpace=wrap;connectable=0;strokeColor=inherit;overflow=hidden;fillColor=none;top=0;left=0;bottom=0;right=0;pointerEvents=1;fontSize=16;" vertex="1" parent="ExWaQGSTnUzk4WiOq3_O-78">
          <mxGeometry x="160" width="40" height="23" as="geometry">
            <mxRectangle width="40" height="23" as="alternateBounds" />
          </mxGeometry>
        </mxCell>
        <mxCell id="ExWaQGSTnUzk4WiOq3_O-117" value="Insert(a, va)" style="text;html=1;align=center;verticalAlign=middle;whiteSpace=wrap;rounded=0;fillColor=#dae8fc;strokeColor=#6c8ebf;" vertex="1" parent="1">
          <mxGeometry x="260" y="400" width="90" height="30" as="geometry" />
        </mxCell>
        <mxCell id="ExWaQGSTnUzk4WiOq3_O-118" value="" style="endArrow=classic;html=1;rounded=0;" edge="1" parent="1">
          <mxGeometry width="50" height="50" relative="1" as="geometry">
            <mxPoint x="250" y="250" as="sourcePoint" />
            <mxPoint x="250" y="290" as="targetPoint" />
          </mxGeometry>
        </mxCell>
        <mxCell id="ExWaQGSTnUzk4WiOq3_O-121" value="" style="endArrow=none;dashed=1;html=1;rounded=0;exitX=0.202;exitY=-0.028;exitDx=0;exitDy=0;exitPerimeter=0;strokeWidth=2;" edge="1" parent="1" source="ExWaQGSTnUzk4WiOq3_O-74">
          <mxGeometry width="50" height="50" relative="1" as="geometry">
            <mxPoint x="240" y="287" as="sourcePoint" />
            <mxPoint x="290" y="237" as="targetPoint" />
          </mxGeometry>
        </mxCell>
        <mxCell id="ExWaQGSTnUzk4WiOq3_O-124" value="" style="endArrow=classic;html=1;rounded=0;entryX=0.512;entryY=-0.028;entryDx=0;entryDy=0;entryPerimeter=0;" edge="1" parent="1" target="ExWaQGSTnUzk4WiOq3_O-74">
          <mxGeometry width="50" height="50" relative="1" as="geometry">
            <mxPoint x="305" y="240" as="sourcePoint" />
            <mxPoint x="360" y="260" as="targetPoint" />
          </mxGeometry>
        </mxCell>
        <mxCell id="ExWaQGSTnUzk4WiOq3_O-125" value="" style="endArrow=classic;html=1;rounded=0;entryX=0.512;entryY=-0.028;entryDx=0;entryDy=0;entryPerimeter=0;" edge="1" parent="1">
          <mxGeometry width="50" height="50" relative="1" as="geometry">
            <mxPoint x="390" y="237" as="sourcePoint" />
            <mxPoint x="437" y="296" as="targetPoint" />
          </mxGeometry>
        </mxCell>
      </root>
    </mxGraphModel>
  </diagram>
</mxfile>
